<?xml version="1.0" encoding="UTF-8"?>
<svg width="81px" height="80px" viewBox="0 0 81 80" version="1.1" xmlns="http://www.w3.org/2000/svg" xmlns:xlink="http://www.w3.org/1999/xlink">
    <!-- Generator: Sketch 48.2 (47327) - http://www.bohemiancoding.com/sketch -->
    <title>github</title>
    <desc>Created with Sketch.</desc>
    <defs></defs>
    <g id="Page-1" stroke="none" stroke-width="1" fill="none" fill-rule="evenodd">
        <g id="github" fill="#FF4B4B" fill-rule="nonzero">
            <path d="M40.5793074,0.297939115 C18.2526206,0.297939115 0.147965268,18.3992468 0.147965268,40.7292813 C0.147965268,58.5929072 11.7327754,73.7483001 27.7973847,79.0944659 C29.8180145,79.468731 30.5598493,78.2173867 30.5598493,77.1494927 C30.5598493,76.1853751 30.5223558,73.0004394 30.5049483,69.6220106 C19.2569097,72.0677895 16.8834397,64.8516372 16.8834397,64.8516372 C15.0442514,60.178345 12.3942671,58.9357046 12.3942671,58.9357046 C8.72593367,56.4263207 12.6707815,56.4778742 12.6707815,56.4778742 C16.7307877,56.7630924 18.8685846,60.6443352 18.8685846,60.6443352 C22.4746522,66.8254001 28.3269798,65.0384349 30.6341668,64.0053563 C30.9970499,61.3921958 32.0448582,59.6085783 33.2011298,58.598933 C24.2207762,57.5765666 14.7804582,54.1097604 14.7804582,38.6175959 C14.7804582,34.2034104 16.3598703,30.5966733 18.9462496,27.7652474 C18.5264567,26.7468982 17.1425463,22.6346689 19.3379223,17.0655508 C19.3379223,17.0655508 22.7330892,15.97891 30.4594205,21.2099174 C33.6845277,20.3140914 37.1432995,19.8648394 40.5793074,19.8494403 C44.0153154,19.8648394 47.4767654,20.3140914 50.7078983,21.2099174 C58.4248562,15.97891 61.8153363,17.0655508 61.8153363,17.0655508 C64.0160687,22.6346689 62.6314886,26.7468982 62.2116958,27.7652474 C64.8041009,30.5966733 66.3728005,34.2034104 66.3728005,38.6175959 C66.3728005,54.1465844 56.9144053,57.5658542 47.9112878,58.5667956 C49.3614813,59.8214876 50.6536667,62.2819961 50.6536667,66.0541061 C50.6536667,71.463877 50.6067999,75.8178052 50.6067999,77.1494927 C50.6067999,78.2254211 51.3345748,79.4861387 53.3839941,79.0891098 C69.4398995,73.7369181 81.0099802,58.5868815 81.0099802,40.7292813 C81.0099802,18.3992468 62.9080029,0.297939115 40.5793074,0.297939115" id="Fill-5"></path>
            <path d="M15.4613663,58.3485302 C15.3723193,58.5493881 15.056303,58.6096454 14.7684068,58.4717229 C14.4751543,58.3398263 14.3104508,58.0659902 14.4055235,57.8644628 C14.492562,57.6575792 14.8092478,57.6 15.1018308,57.7385919 C15.3957527,57.8704885 15.5631342,58.1470028 15.4613663,58.3485302" id="Fill-6"></path>
            <path d="M17.0990271,60.1749974 C16.9062035,60.3537608 16.5292604,60.2707396 16.2735014,59.9881996 C16.0090386,59.7063291 15.9594937,59.3293859 16.1549953,59.1479443 C16.3538446,58.9691809 16.7194058,59.0528716 16.9845381,59.3347422 C17.2490009,59.6199602 17.3005544,59.9942253 17.0990271,60.1749974" id="Fill-7"></path>
            <path d="M18.6931687,62.5036091 C18.4454441,62.6756774 18.0403808,62.5143216 17.789978,62.154786 C17.5422534,61.7952505 17.5422534,61.3640757 17.7953343,61.191338 C18.0464065,61.0186003 18.4454441,61.1739303 18.6991944,61.5307877 C18.9462496,61.896349 18.9462496,62.3275238 18.6931687,62.5036091" id="Fill-8"></path>
            <path d="M20.8771628,64.7532169 C20.6555498,64.9975939 20.1835339,64.9319804 19.8380583,64.5985564 C19.4845486,64.2724971 19.3861283,63.8098546 19.6084109,63.5654776 C19.8327022,63.320431 20.3073962,63.3893922 20.6555498,63.7201381 C21.0063815,64.0455278 21.1135056,64.511518 20.8771628,64.7532169" id="Fill-9"></path>
            <path d="M23.8900304,66.0594623 C23.7922795,66.3761482 23.3376713,66.5200962 22.8797154,66.3855215 C22.4224292,66.2469296 22.123151,65.8760122 22.2155455,65.5559786 C22.3106182,65.2372843 22.767235,65.0873104 23.2285385,65.2312585 C23.6851553,65.3691809 23.9851031,65.7374203 23.8900304,66.0594623" id="Fill-10"></path>
            <path d="M27.1988284,66.3018308 C27.2102102,66.6352547 26.8218852,66.911769 26.3411654,66.9177947 C25.8577676,66.9285071 25.4667644,66.6586881 25.4614081,66.3306204 C25.4614081,65.9938487 25.8410294,65.7200126 26.3244272,65.7119782 C26.8051469,65.7026049 27.1988284,65.9704153 27.1988284,66.3018308" id="Fill-11"></path>
            <path d="M30.2779788,65.7775918 C30.3355581,66.1029815 30.0014646,66.437075 29.5240925,66.526122 C29.0547546,66.6118214 28.6202322,66.4109634 28.5606445,66.0882519 C28.5023956,65.7548279 28.8425149,65.4207344 29.3111832,65.3343656 C29.7892248,65.2513443 30.2170519,65.4468459 30.2779788,65.7775918" id="Fill-12"></path>
        </g>
    </g>
</svg>