<?xml version="1.0" encoding="UTF-8"?>
<svg width="80px" height="74px" viewBox="0 0 80 74" version="1.1" xmlns="http://www.w3.org/2000/svg" xmlns:xlink="http://www.w3.org/1999/xlink">
    <!-- Generator: Sketch 48.2 (47327) - http://www.bohemiancoding.com/sketch -->
    <title>In-Black-2in-R</title>
    <desc>Created with Sketch.</desc>
    <defs>
        <polygon id="path-1" points="0 0 74.081178 0 74.081178 73.4828829 0 73.4828829"></polygon>
    </defs>
    <g id="Page-1" stroke="none" stroke-width="1" fill="none" fill-rule="evenodd">
        <g id="In-Black-2in-R">
            <g id="Group-3">
                <mask id="mask-2" fill="white">
                    <use xlink:href="#path-1"></use>
                </mask>
                <g id="Clip-2"></g>
                <path d="M63.1255471,62.6432132 L52.1452227,62.6432132 L52.1452227,45.5824625 C52.1452227,41.5121622 52.0701137,36.2794294 46.4359068,36.2794294 C40.7178453,36.2794294 39.8422591,40.7116817 39.8422591,45.2878979 L39.8422591,62.6432132 L28.8624492,62.6432132 L28.8624492,27.5604204 L39.4029226,27.5604204 L39.4029226,32.3536036 L39.5490252,32.3536036 C41.0151948,29.5958258 44.5993364,26.6874474 49.9449394,26.6874474 C61.0713663,26.6874474 63.1255471,33.9535435 63.1255471,43.3995195 L63.1255471,62.6432132 Z M16.4797465,22.7646847 C12.9578527,22.7646847 10.1073103,19.9308408 10.1073103,16.440991 C10.1073103,12.9536937 12.9578527,10.1208709 16.4797465,10.1208709 C19.9923802,10.1208709 22.8470382,12.9536937 22.8470382,16.440991 C22.8470382,19.9308408 19.9923802,22.7646847 16.4797465,22.7646847 Z M10.983411,62.6432132 L21.971452,62.6432132 L21.971452,27.5604204 L10.983411,27.5604204 L10.983411,62.6432132 Z M68.5977036,0 L5.46804101,0 C2.45133271,0 0,2.37285285 0,5.29858859 L0,68.2087988 C0,71.1370871 2.45133271,73.5135135 5.46804101,73.5135135 L68.5977036,73.5135135 C71.6195564,73.5135135 74.081178,71.1370871 74.081178,68.2087988 L74.081178,5.29858859 C74.081178,2.37285285 71.6195564,0 68.5977036,0 Z" id="Fill-1" fill="#FF7170" mask="url(#mask-2)"></path>
            </g>
            <path d="M77.2027872,61.5170699 L76.9628634,61.5170699 L76.9628634,60.7865446 L77.2668619,60.7865446 C77.4238447,60.7865446 77.6036095,60.8250496 77.6036095,61.1336243 C77.6036095,61.4887259 77.4224208,61.5170699 77.2027872,61.5170699 Z M77.4412872,61.7336604 C77.6837028,61.688738 77.8104281,61.4887259 77.8104281,61.1512725 C77.8104281,60.7400178 77.645258,60.5405405 77.3049507,60.5405405 L76.7567568,60.5405405 L76.7567568,62.7027027 L76.9628634,62.7027027 L76.9628634,61.7614696 L77.217382,61.7614696 L77.2230775,61.7727002 L77.6171364,62.7027027 L77.8378378,62.7027027 L77.4138775,61.7390084 L77.4412872,61.7336604 Z" id="Fill-4" fill="#FF7170"></path>
            <path d="M77.8392501,63.5010373 C76.8043497,63.5010373 75.9937155,62.6839001 75.9937155,61.6213389 C75.9937155,60.5616052 76.8043497,59.7439024 77.8392501,59.7439024 C78.8730206,59.7439024 79.6836549,60.5616052 79.6836549,61.6213389 C79.6836549,62.6839001 78.8730206,63.5010373 77.8392501,63.5010373 Z M77.8392501,59.4594595 C76.6264056,59.4594595 75.6756757,60.4100531 75.6756757,61.6213389 C75.6756757,62.8360177 76.6264056,63.7837838 77.8392501,63.7837838 C79.0509647,63.7837838 80,62.8360177 80,61.6213389 C80,60.4100531 79.0509647,59.4594595 77.8392501,59.4594595 Z" id="Fill-5" fill="#FF7170"></path>
        </g>
    </g>
</svg>